# xmcd
#
# Track frame offsets:
#	150
#	12848
#	26031
#	37211
#	48888
#	60303
#	74145
#	86837
#	100424
#	112886
#	125447
#	138518
#	151314
#	175258
#
# Disc length: 2643 seconds
# Revision: 0
# Processed by: cddbd v1.5.2PL0 Copyright (c) Steve Scherf et al.
# Submitted via: dBpowerAMP V12.0
#
DISCID=c00a510e
DTITLE=Lowell Fulsom - Now
DYEAR=1969
DGENRE=Blues
TTITLE0=I´m A Drifter [1968]
TTITLE1=Funky Broadway [1968]
TTITLE2=Let´s Go Get Stoned [1968]
TTITLE3=Push Me [1968]
TTITLE4=The Letter [1968]
TTITLE5=I Cried (Like A Baby) [1968]
TTITLE6=Feel So Bad [1968]
TTITLE7=Everyday I Have The Blues [1967]
TTITLE8=Mellow Together [1968]
TTITLE9=Going To Chicago [1968]
TTITLE10=Confessin' The Blues [1967]
TTITLE11=Tomorrow [1968]
TTITLE12=Blues Pain (Bonus) [1968]
TTITLE13=I Wanna Spend Christmas With You Bonus) [1967]
EXTD=
EXTT0=
EXTT1=
EXTT2=
EXTT3=
EXTT4=
EXTT5=
EXTT6=
EXTT7=
EXTT8=
EXTT9=
EXTT10=
EXTT11=
EXTT12=
EXTT13=
PLAYORDER=
